# xmcd
#
# Track frame offsets:
#	150
#	82554
#	112240
#	133923
#	160409
#	183126
#	268237
#
# Disc length: 3975 seconds
#
# Revision: 1
# Processed by: cddbd v1.5.2PL0 Copyright (c) Steve Scherf et al.
# Submitted via: audiograbber 1.83.01
#
DISCID=5b0f8507
DTITLE=Grateful Dead - 70-07-11A Fillmore East, New York NY
DYEAR=1900
DGENRE=
TTITLE0=Good Lovin'
TTITLE1=High Time
TTITLE2=Cumberland Blues
TTITLE3=China Cat Sunflower
TTITLE4=I Know You Rider
TTITLE5=Viola Lee Blues
TTITLE6=Uncle John's Band
EXTD=
EXTT0=
EXTT1=
EXTT2=
EXTT3=
EXTT4=
EXTT5=
EXTT6=
PLAYORDER=
